<mxfile host="app.diagrams.net" modified="2020-12-19T04:50:04.097Z" agent="5.0 (Windows NT 6.1; Win64; x64) AppleWebKit/537.36 (KHTML, like Gecko) Chrome/87.0.4280.88 Safari/537.36" etag="Qa6uVWZTgdqDEcpQNV0o" version="13.11.0" type="github">
  <diagram id="Lafy5iaJPpKN_NIYAcs5" name="Page-1">
    <mxGraphModel dx="2134" dy="1820" grid="1" gridSize="10" guides="1" tooltips="1" connect="1" arrows="1" fold="1" page="1" pageScale="1" pageWidth="827" pageHeight="1169" math="0" shadow="0">
      <root>
        <mxCell id="0" />
        <mxCell id="1" parent="0" />
        <mxCell id="IaznOFFQn422G-CRZnzF-1" value="&lt;h1&gt;翻译平台流程&lt;/h1&gt;&lt;p&gt;整个翻译服务从启动，监听服务请求，到开启和结束翻译的整个流程.&lt;/p&gt;" style="text;html=1;strokeColor=none;fillColor=none;spacing=5;spacingTop=-20;whiteSpace=wrap;overflow=hidden;rounded=0;direction=east;" vertex="1" parent="1">
          <mxGeometry x="10" width="190" height="120" as="geometry" />
        </mxCell>
        <mxCell id="IaznOFFQn422G-CRZnzF-6" style="edgeStyle=orthogonalEdgeStyle;rounded=0;orthogonalLoop=1;jettySize=auto;html=1;" edge="1" parent="1" source="IaznOFFQn422G-CRZnzF-2" target="IaznOFFQn422G-CRZnzF-3">
          <mxGeometry relative="1" as="geometry" />
        </mxCell>
        <mxCell id="IaznOFFQn422G-CRZnzF-2" value="translation_service_daemon.py" style="rounded=1;whiteSpace=wrap;html=1;" vertex="1" parent="1">
          <mxGeometry y="120" width="170" height="30" as="geometry" />
        </mxCell>
        <mxCell id="IaznOFFQn422G-CRZnzF-7" style="edgeStyle=orthogonalEdgeStyle;rounded=0;orthogonalLoop=1;jettySize=auto;html=1;" edge="1" parent="1" source="IaznOFFQn422G-CRZnzF-3" target="IaznOFFQn422G-CRZnzF-4">
          <mxGeometry relative="1" as="geometry" />
        </mxCell>
        <mxCell id="IaznOFFQn422G-CRZnzF-25" style="edgeStyle=orthogonalEdgeStyle;rounded=0;orthogonalLoop=1;jettySize=auto;html=1;entryX=0;entryY=0.25;entryDx=0;entryDy=0;" edge="1" parent="1" source="IaznOFFQn422G-CRZnzF-3" target="IaznOFFQn422G-CRZnzF-24">
          <mxGeometry relative="1" as="geometry" />
        </mxCell>
        <mxCell id="IaznOFFQn422G-CRZnzF-3" value="BuildServer" style="rounded=1;whiteSpace=wrap;html=1;" vertex="1" parent="1">
          <mxGeometry x="20" y="190" width="130" height="40" as="geometry" />
        </mxCell>
        <mxCell id="IaznOFFQn422G-CRZnzF-8" style="edgeStyle=orthogonalEdgeStyle;rounded=0;orthogonalLoop=1;jettySize=auto;html=1;" edge="1" parent="1" source="IaznOFFQn422G-CRZnzF-4" target="IaznOFFQn422G-CRZnzF-5">
          <mxGeometry relative="1" as="geometry" />
        </mxCell>
        <mxCell id="IaznOFFQn422G-CRZnzF-4" value="Init(LOCAL_IP, LOCAL_PORT)//网络初始化" style="rounded=1;whiteSpace=wrap;html=1;" vertex="1" parent="1">
          <mxGeometry x="-5" y="250" width="180" height="40" as="geometry" />
        </mxCell>
        <mxCell id="IaznOFFQn422G-CRZnzF-35" style="edgeStyle=orthogonalEdgeStyle;rounded=0;orthogonalLoop=1;jettySize=auto;html=1;exitX=1;exitY=0;exitDx=0;exitDy=0;entryX=0.221;entryY=0.5;entryDx=0;entryDy=0;entryPerimeter=0;" edge="1" parent="1" source="IaznOFFQn422G-CRZnzF-5" target="IaznOFFQn422G-CRZnzF-34">
          <mxGeometry relative="1" as="geometry">
            <Array as="points">
              <mxPoint x="230" y="310" />
              <mxPoint x="230" y="240" />
              <mxPoint x="410" y="240" />
            </Array>
          </mxGeometry>
        </mxCell>
        <mxCell id="IaznOFFQn422G-CRZnzF-36" value="Run的预处理，只执行一次" style="edgeLabel;html=1;align=center;verticalAlign=middle;resizable=0;points=[];" vertex="1" connectable="0" parent="IaznOFFQn422G-CRZnzF-35">
          <mxGeometry x="0.0494" y="4" relative="1" as="geometry">
            <mxPoint as="offset" />
          </mxGeometry>
        </mxCell>
        <mxCell id="IaznOFFQn422G-CRZnzF-5" value="Run()" style="rounded=1;whiteSpace=wrap;html=1;" vertex="1" parent="1">
          <mxGeometry x="32.5" y="310" width="105" height="40" as="geometry" />
        </mxCell>
        <mxCell id="IaznOFFQn422G-CRZnzF-9" style="edgeStyle=orthogonalEdgeStyle;rounded=0;orthogonalLoop=1;jettySize=auto;html=1;" edge="1" parent="1" source="IaznOFFQn422G-CRZnzF-5" target="IaznOFFQn422G-CRZnzF-20">
          <mxGeometry relative="1" as="geometry">
            <mxPoint x="200" y="320" as="sourcePoint" />
            <mxPoint x="180" y="390" as="targetPoint" />
          </mxGeometry>
        </mxCell>
        <mxCell id="IaznOFFQn422G-CRZnzF-11" value="BaseServer" style="swimlane;fontStyle=1;align=center;verticalAlign=top;childLayout=stackLayout;horizontal=1;startSize=26;horizontalStack=0;resizeParent=1;resizeParentMax=0;resizeLast=0;collapsible=1;marginBottom=0;" vertex="1" parent="1">
          <mxGeometry x="830" y="54" width="160" height="86" as="geometry" />
        </mxCell>
        <mxCell id="IaznOFFQn422G-CRZnzF-12" value="+ field: type" style="text;strokeColor=none;fillColor=none;align=left;verticalAlign=top;spacingLeft=4;spacingRight=4;overflow=hidden;rotatable=0;points=[[0,0.5],[1,0.5]];portConstraint=eastwest;" vertex="1" parent="IaznOFFQn422G-CRZnzF-11">
          <mxGeometry y="26" width="160" height="26" as="geometry" />
        </mxCell>
        <mxCell id="IaznOFFQn422G-CRZnzF-13" value="" style="line;strokeWidth=1;fillColor=none;align=left;verticalAlign=middle;spacingTop=-1;spacingLeft=3;spacingRight=3;rotatable=0;labelPosition=right;points=[];portConstraint=eastwest;" vertex="1" parent="IaznOFFQn422G-CRZnzF-11">
          <mxGeometry y="52" width="160" height="8" as="geometry" />
        </mxCell>
        <mxCell id="IaznOFFQn422G-CRZnzF-14" value="+ method(type): type" style="text;strokeColor=none;fillColor=none;align=left;verticalAlign=top;spacingLeft=4;spacingRight=4;overflow=hidden;rotatable=0;points=[[0,0.5],[1,0.5]];portConstraint=eastwest;" vertex="1" parent="IaznOFFQn422G-CRZnzF-11">
          <mxGeometry y="60" width="160" height="26" as="geometry" />
        </mxCell>
        <mxCell id="IaznOFFQn422G-CRZnzF-15" value="BuildServer" style="swimlane;fontStyle=1;align=center;verticalAlign=top;childLayout=stackLayout;horizontal=1;startSize=26;horizontalStack=0;resizeParent=1;resizeParentMax=0;resizeLast=0;collapsible=1;marginBottom=0;" vertex="1" parent="1">
          <mxGeometry x="830" y="204" width="160" height="86" as="geometry" />
        </mxCell>
        <mxCell id="IaznOFFQn422G-CRZnzF-16" value="+ field: type" style="text;strokeColor=none;fillColor=none;align=left;verticalAlign=top;spacingLeft=4;spacingRight=4;overflow=hidden;rotatable=0;points=[[0,0.5],[1,0.5]];portConstraint=eastwest;" vertex="1" parent="IaznOFFQn422G-CRZnzF-15">
          <mxGeometry y="26" width="160" height="26" as="geometry" />
        </mxCell>
        <mxCell id="IaznOFFQn422G-CRZnzF-17" value="" style="line;strokeWidth=1;fillColor=none;align=left;verticalAlign=middle;spacingTop=-1;spacingLeft=3;spacingRight=3;rotatable=0;labelPosition=right;points=[];portConstraint=eastwest;" vertex="1" parent="IaznOFFQn422G-CRZnzF-15">
          <mxGeometry y="52" width="160" height="8" as="geometry" />
        </mxCell>
        <mxCell id="IaznOFFQn422G-CRZnzF-18" value="+ method(type): type" style="text;strokeColor=none;fillColor=none;align=left;verticalAlign=top;spacingLeft=4;spacingRight=4;overflow=hidden;rotatable=0;points=[[0,0.5],[1,0.5]];portConstraint=eastwest;" vertex="1" parent="IaznOFFQn422G-CRZnzF-15">
          <mxGeometry y="60" width="160" height="26" as="geometry" />
        </mxCell>
        <mxCell id="IaznOFFQn422G-CRZnzF-19" value="Extends" style="endArrow=block;endSize=16;endFill=0;html=1;" edge="1" parent="1" source="IaznOFFQn422G-CRZnzF-15" target="IaznOFFQn422G-CRZnzF-11">
          <mxGeometry width="160" relative="1" as="geometry">
            <mxPoint x="716" y="274" as="sourcePoint" />
            <mxPoint x="876" y="274" as="targetPoint" />
          </mxGeometry>
        </mxCell>
        <mxCell id="IaznOFFQn422G-CRZnzF-30" style="edgeStyle=orthogonalEdgeStyle;rounded=0;orthogonalLoop=1;jettySize=auto;html=1;" edge="1" parent="1" source="IaznOFFQn422G-CRZnzF-20" target="IaznOFFQn422G-CRZnzF-21">
          <mxGeometry relative="1" as="geometry" />
        </mxCell>
        <mxCell id="IaznOFFQn422G-CRZnzF-20" value="Update（）" style="rounded=1;whiteSpace=wrap;html=1;" vertex="1" parent="1">
          <mxGeometry x="294" y="315" width="136" height="30" as="geometry" />
        </mxCell>
        <mxCell id="IaznOFFQn422G-CRZnzF-28" style="edgeStyle=orthogonalEdgeStyle;rounded=0;orthogonalLoop=1;jettySize=auto;html=1;exitX=0.5;exitY=1;exitDx=0;exitDy=0;entryX=0.5;entryY=0;entryDx=0;entryDy=0;" edge="1" parent="1" source="IaznOFFQn422G-CRZnzF-21" target="IaznOFFQn422G-CRZnzF-26">
          <mxGeometry relative="1" as="geometry" />
        </mxCell>
        <mxCell id="IaznOFFQn422G-CRZnzF-21" value="MysqlUtil()" style="rounded=1;whiteSpace=wrap;html=1;" vertex="1" parent="1">
          <mxGeometry x="294" y="390" width="136" height="30" as="geometry" />
        </mxCell>
        <mxCell id="IaznOFFQn422G-CRZnzF-24" value="TaskHandler()" style="rounded=1;whiteSpace=wrap;html=1;" vertex="1" parent="1">
          <mxGeometry x="380" y="67" width="120" height="33" as="geometry" />
        </mxCell>
        <mxCell id="IaznOFFQn422G-CRZnzF-29" style="edgeStyle=orthogonalEdgeStyle;rounded=0;orthogonalLoop=1;jettySize=auto;html=1;exitX=0.5;exitY=1;exitDx=0;exitDy=0;" edge="1" parent="1" source="IaznOFFQn422G-CRZnzF-26" target="IaznOFFQn422G-CRZnzF-27">
          <mxGeometry relative="1" as="geometry" />
        </mxCell>
        <mxCell id="IaznOFFQn422G-CRZnzF-26" value="UpdateTask" style="rounded=1;whiteSpace=wrap;html=1;" vertex="1" parent="1">
          <mxGeometry x="294" y="430" width="136" height="30" as="geometry" />
        </mxCell>
        <mxCell id="IaznOFFQn422G-CRZnzF-33" style="edgeStyle=orthogonalEdgeStyle;rounded=0;orthogonalLoop=1;jettySize=auto;html=1;" edge="1" parent="1" source="IaznOFFQn422G-CRZnzF-27" target="IaznOFFQn422G-CRZnzF-5">
          <mxGeometry relative="1" as="geometry" />
        </mxCell>
        <mxCell id="IaznOFFQn422G-CRZnzF-27" value="TryToRaiseTask" style="rounded=1;whiteSpace=wrap;html=1;" vertex="1" parent="1">
          <mxGeometry x="294" y="470" width="136" height="30" as="geometry" />
        </mxCell>
        <mxCell id="IaznOFFQn422G-CRZnzF-31" value="Service Exit!" style="rounded=1;whiteSpace=wrap;html=1;" vertex="1" parent="1">
          <mxGeometry x="-50" y="390" width="105" height="40" as="geometry" />
        </mxCell>
        <mxCell id="IaznOFFQn422G-CRZnzF-38" style="edgeStyle=orthogonalEdgeStyle;rounded=0;orthogonalLoop=1;jettySize=auto;html=1;" edge="1" parent="1" source="IaznOFFQn422G-CRZnzF-34" target="IaznOFFQn422G-CRZnzF-37">
          <mxGeometry relative="1" as="geometry" />
        </mxCell>
        <mxCell id="IaznOFFQn422G-CRZnzF-34" value="NetworkFunction（循环线程）" style="rounded=1;whiteSpace=wrap;html=1;" vertex="1" parent="1">
          <mxGeometry x="380" y="190" width="136" height="40" as="geometry" />
        </mxCell>
        <mxCell id="IaznOFFQn422G-CRZnzF-41" style="edgeStyle=orthogonalEdgeStyle;rounded=0;orthogonalLoop=1;jettySize=auto;html=1;exitX=0.5;exitY=1;exitDx=0;exitDy=0;" edge="1" parent="1" source="IaznOFFQn422G-CRZnzF-37" target="IaznOFFQn422G-CRZnzF-40">
          <mxGeometry relative="1" as="geometry" />
        </mxCell>
        <mxCell id="IaznOFFQn422G-CRZnzF-37" value="ProcessOnce//其实是不是只是用来监控实时日志的" style="rounded=1;whiteSpace=wrap;html=1;" vertex="1" parent="1">
          <mxGeometry x="550" y="190" width="150" height="40" as="geometry" />
        </mxCell>
        <mxCell id="IaznOFFQn422G-CRZnzF-40" value="OnRecv" style="rounded=1;whiteSpace=wrap;html=1;" vertex="1" parent="1">
          <mxGeometry x="557" y="260" width="136" height="40" as="geometry" />
        </mxCell>
      </root>
    </mxGraphModel>
  </diagram>
</mxfile>
